<?xml version="1.0" encoding="UTF-8"?>
<svg xmlns="http://www.w3.org/2000/svg" xmlns:xlink="http://www.w3.org/1999/xlink" width="24px" height="24px" viewBox="0 0 18 18" version="1.1">
<g id="surface1">
<path style=" stroke:none;fill-rule:nonzero;fill:rgb(0.392157%,0.784314%,0.784314%);fill-opacity:1;" d="M 11.988281 1.699219 L 16.335938 1.699219 L 18 0 L 1.664062 0 L 0 1.699219 L 2.835938 1.699219 C 5.707031 1.699219 8.355469 1.851562 9.410156 3.480469 L 1.6875 3.480469 L 0.0234375 5.179688 L 9.726562 5.179688 C 9.726562 6.410156 8.238281 8.285156 3.304688 8.285156 L 0.914062 8.285156 L 0.914062 9.867188 L 10.476562 18 L 14.742188 18 L 4.851562 9.597656 C 8.917969 9.445312 12.738281 7.898438 13.289062 5.179688 L 16.335938 5.179688 L 18 3.492188 L 13.242188 3.492188 C 13.066406 2.824219 12.632812 2.203125 11.988281 1.699219 Z M 11.988281 1.699219 "/>
</g>
</svg>
